<?xml version="1.0" encoding="UTF-8"?>
<!DOCTYPE svg PUBLIC "-//W3C//DTD SVG 1.1//EN" "http://www.w3.org/Graphics/SVG/1.1/DTD/svg11.dtd">
<svg xmlns:xlink="http://www.w3.org/1999/xlink" xmlns:dc="http://purl.org/dc/elements/1.1/" xmlns:cc="http://web.resource.org/cc/" xmlns:rdf="http://www.w3.org/1999/02/22-rdf-syntax-ns#" xmlns:svg="http://www.w3.org/2000/svg" xmlns="http://www.w3.org/2000/svg" xmlns:sodipodi="http://sodipodi.sourceforge.net/DTD/sodipodi-0.dtd" xmlns:inkscape="http://www.inkscape.org/namespaces/inkscape" width="259.2912" height="344.85617" id="svg2444" sodipodi:version="0.32" inkscape:version="0.45.1" version="1.0" sodipodi:docbase="/Users/lmixson/Pictures" sodipodi:docname="Che.svg" inkscape:output_extension="org.inkscape.output.svg.inkscape">
  <defs id="defs2446"/>
  <sodipodi:namedview id="base" pagecolor="#ffffff" bordercolor="#666666" borderopacity="1.0" gridtolerance="10000" guidetolerance="10" objecttolerance="10" inkscape:pageopacity="0.0" inkscape:pageshadow="2" inkscape:zoom="0.35" inkscape:cx="375" inkscape:cy="520" inkscape:document-units="px" inkscape:current-layer="layer1" inkscape:window-width="697" inkscape:window-height="581" inkscape:window-x="20" inkscape:window-y="42" style="display:inline;"/>
  <metadata id="metadata2449">
    <rdf:RDF style="display:inline;">
      <cc:Work rdf:about="" style="display:inline;">
        <dc:format style="display:inline;">image/svg+xml</dc:format>
        <dc:type rdf:resource="http://purl.org/dc/dcmitype/StillImage" style="display:inline;"/>
      </cc:Work>
    </rdf:RDF>
  </metadata>
  <g inkscape:label="Layer 1" inkscape:groupmode="layer" id="layer1" transform="matrix(1, 0, 0, 1, -240.451, -317.077)" class="">
    
  </g><g id="g2428" transform="matrix(1.42503, 0, 0, 1.42503, -107.564, -528.661)" class="">
      
      
      
      
      
      
      
      
      
      
      
      
      
      
    </g><path d="M137.982,612.006 C137.982,611.56 137.171,610.323 136.18,609.256 C133.764,606.658 131.367,598.032 132.692,596.707 C133.36,596.039 134.119,596.734 134.973,598.795 C135.676,600.494 137.563,602.91 139.165,604.164 C140.767,605.418 142.152,607.428 142.243,608.631 C142.333,609.834 142.762,610.818 143.195,610.818 C143.628,610.818 143.982,611.268 143.982,611.818 C143.982,612.368 142.632,612.818 140.982,612.818 C139.332,612.818 137.982,612.453 137.982,612.006 z M178.982,611.234 C177.607,610.471 177.045,609.841 177.732,609.833 C178.42,609.824 178.982,608.693 178.982,607.318 C178.982,605.461 178.453,604.818 176.923,604.818 C175.791,604.818 175.113,604.415 175.417,603.923 C176.017,602.952 173.19,601.393 171.346,601.678 C170.289,601.841 168.538,598.929 169.259,598.207 C170.021,597.445 176.853,600.218 176.324,601.074 C176.003,601.593 176.734,601.486 177.947,600.836 C179.16,600.187 180.323,599.825 180.53,600.033 C180.922,600.425 182.065,612.893 181.693,612.72 C181.577,612.666 180.357,611.997 178.982,611.234 z M187.982,610.854 C187.982,609.775 187.009,605.048 185.819,600.35 C184.63,595.653 184.017,591.474 184.456,591.064 C184.896,590.653 185.457,590.88 185.702,591.568 C185.948,592.255 186.813,592.818 187.624,592.818 C188.436,592.818 188.851,592.415 188.547,591.923 C188.242,591.43 188.673,590.766 189.504,590.448 C190.642,590.011 190.958,588.502 190.784,584.343 C190.538,578.472 190.058,577.885 187.553,580.389 C185.788,582.155 185.461,583.258 186.982,582.318 C187.532,581.978 187.982,582.574 187.982,583.642 C187.982,586.164 184.21,587.189 182.227,585.206 C181.172,584.15 180.88,582.414 181.233,579.283 C181.508,576.847 181.404,575.057 181.003,575.305 C180.087,575.871 177.695,570.772 178.499,569.967 C178.824,569.642 179.509,570.038 180.021,570.847 C180.765,572.023 180.954,571.892 180.967,570.19 C180.985,567.581 178.407,565.05 177.742,567.026 C177.045,569.097 173.745,565.831 174.319,563.638 C174.581,562.637 174.387,561.818 173.888,561.818 C173.39,561.818 172.982,562.268 172.982,562.818 C172.982,563.368 171.889,563.818 170.553,563.818 C169.218,563.818 167.451,564.491 166.628,565.315 C165.804,566.138 164.422,566.54 163.556,566.208 C162.69,565.876 161.982,566.102 161.982,566.711 C161.982,567.32 162.432,567.818 162.982,567.818 C163.532,567.818 163.982,568.268 163.982,568.818 C163.982,570.477 160.493,569.943 158.362,567.957 C156.498,566.22 152.402,565.363 140.974,564.317 C138.604,564.1 136.335,563.39 135.933,562.738 C135.444,561.947 134.974,562.267 134.519,563.7 C134.145,564.881 133.44,565.601 132.954,565.3 C132.467,565 132.317,563.981 132.62,563.036 C133.059,561.666 132.968,561.603 132.169,562.727 C130.857,564.572 131.69,566.59 134.074,567.347 C135.124,567.68 135.982,568.597 135.982,569.385 C135.982,570.173 136.32,570.764 136.732,570.699 C138.565,570.41 139.982,570.897 139.982,571.818 C139.982,572.368 139.307,572.818 138.482,572.818 C137.657,572.818 136.982,573.254 136.982,573.786 C136.982,574.319 137.657,574.496 138.482,574.179 C139.307,573.863 139.982,574.102 139.982,574.711 C139.982,575.32 140.792,575.818 141.782,575.818 C142.772,575.818 144.01,576.221 144.532,576.715 C145.707,577.824 153.982,579.242 153.982,578.334 C153.982,577.972 153.307,577 152.482,576.175 C151.657,575.35 150.982,574.873 150.982,575.114 C150.982,575.356 149.353,574.017 147.362,572.139 C143.337,568.344 143.51,566.782 147.728,568.83 C149.243,569.565 150.792,570.097 151.171,570.013 C151.55,569.928 152.111,570.647 152.417,571.612 C153.038,573.57 160.599,578.818 162.799,578.818 C163.736,578.818 164.033,579.514 163.677,580.875 C163.334,582.188 163.563,582.784 164.311,582.524 C164.955,582.299 166.754,583.173 168.309,584.467 C169.863,585.76 171.802,586.818 172.618,586.818 C173.433,586.818 173.878,587.177 173.607,587.615 C172.821,588.887 174.246,590.264 177.472,591.351 C179.173,591.925 180.625,593.213 180.839,594.338 C181.194,596.209 181.112,596.225 179.339,594.631 C178.308,593.703 176.343,592.732 174.973,592.473 C171.166,591.753 167.255,590.068 166.48,588.814 C165.998,588.035 165.166,588.246 163.779,589.502 C161.811,591.283 161.78,591.26 162.128,588.317 C162.451,585.577 162.201,585.291 159.232,585.004 C157.406,584.828 155.982,585.157 155.982,585.754 C155.982,586.339 157.159,586.818 158.599,586.818 C160.836,586.818 161.147,587.173 160.747,589.268 C160.489,590.616 160.549,591.65 160.88,591.566 C161.211,591.482 163.159,591.747 165.209,592.156 C168.886,592.89 168.933,592.959 168.74,597.382 C168.61,600.361 168.148,601.712 167.362,601.41 C166.711,601.16 165.952,601.825 165.674,602.887 C164.986,605.518 163.907,605.322 160.036,601.866 C157.941,599.996 156.948,598.348 157.325,597.366 C157.689,596.417 157.371,595.818 156.5,595.818 C155.72,595.818 154.623,595.03 154.062,594.068 C153.501,593.105 153.029,592.71 153.012,593.19 C152.953,594.89 149.982,591.545 149.982,589.779 C149.982,588.792 149.506,587.826 148.925,587.632 C147.474,587.148 148.876,583.818 150.53,583.818 C151.264,583.818 152.147,584.275 152.492,584.834 C152.838,585.393 153.539,585.591 154.051,585.275 C156.027,584.054 154.825,582.926 151.232,582.628 C149.139,582.455 147.574,581.821 147.69,581.194 C147.804,580.576 146.052,579.822 143.796,579.52 C141.54,579.217 139.412,578.513 139.068,577.956 C138.723,577.399 137.201,576.471 135.686,575.895 C134.171,575.319 132.649,574.054 132.306,573.083 C131.962,572.112 130.427,570.132 128.895,568.682 C126.888,566.784 126.251,565.385 126.614,563.682 C127.045,561.667 126.958,561.57 126.024,563.026 C125.39,564.016 124.204,564.51 123.206,564.201 C121.614,563.708 121.616,563.753 123.232,564.792 C125.895,566.504 125.517,569.119 122.732,568.253 C121.495,567.868 120.34,567.188 120.167,566.742 C119.994,566.295 118.303,565.419 116.408,564.793 C114.514,564.168 113.219,563.243 113.532,562.737 C113.844,562.232 113.433,561.818 112.619,561.818 C110.577,561.818 108.646,555.421 109.429,551.25 C109.856,548.974 109.525,546.658 108.451,544.393 C106.849,541.018 106.802,540.998 104.905,542.895 C102.103,545.697 100.684,545.304 101.188,541.866 L101.621,538.915 L99.2195,541.506 C97.3334,543.542 97.1037,544.279 98.1498,544.943 C98.8825,545.407 99.032,545.787 98.482,545.787 C97.932,545.787 96.86,545.393 96.0998,544.912 C94.9252,544.168 94.9243,543.569 96.0939,540.927 C96.8509,539.217 97.8369,537.818 98.2851,537.818 C98.7333,537.818 98.8219,537.368 98.482,536.818 C98.1421,536.268 96.1603,535.818 94.078,535.818 C89.7883,535.818 86.8092,533.296 86.3836,529.305 C86.1472,527.087 86.49,526.818 89.5502,526.818 C91.4377,526.818 92.982,526.613 92.982,526.363 C92.982,525.535 87.9072,520.818 87.016,520.818 C85.7228,520.818 84.7797,515.472 85.5391,512.446 C85.902,511.001 86.6375,509.818 87.1738,509.818 C87.71,509.818 87.9503,510.38 87.7079,511.068 C87.0314,512.986 90.8729,517.818 93.0749,517.818 C94.2418,517.818 95.4151,516.809 95.982,515.318 C96.5048,513.943 97.649,512.818 98.5247,512.818 C99.7171,512.818 99.9405,512.253 99.4146,510.568 C99.0284,509.33 98.4028,508.093 98.0243,507.818 C97.6458,507.543 97.0417,506.52 96.6817,505.545 C95.6926,502.866 93.0785,502.33 89.9662,504.168 C85.9521,506.539 81.7301,506.24 78.628,503.366 C77.1727,502.017 75.982,500.363 75.982,499.691 C75.982,499.003 76.9926,499.419 78.2965,500.643 C81.2742,503.441 84.6661,503.412 87.0385,500.568 C88.5843,498.715 88.9213,496.608 88.9487,488.627 C88.967,483.297 88.5441,478.665 88.0088,478.334 C87.0766,477.758 84.8579,473.32 83.6005,469.516 C82.7061,466.81 84.933,468.559 86.0189,471.415 C86.5214,472.736 87.6711,473.818 88.5738,473.818 C89.8602,473.818 90.0702,473.223 89.5449,471.068 C89.1762,469.555 88.8664,467.589 88.8563,466.698 C88.8294,464.309 84.6243,462.439 80.9363,463.177 C78.3197,463.7 77.876,463.536 78.3765,462.232 C78.7095,461.364 78.982,460.477 78.982,460.261 C78.982,460.045 80.2195,460.113 81.732,460.412 C83.8754,460.836 85.3643,460.202 88.482,457.535 C90.682,455.653 94.1843,453.501 96.265,452.753 C102.803,450.401 109.159,441.626 108.285,436.158 C107.845,433.405 106.688,430.164 104.865,426.581 C103.507,423.911 103.818,417.199 105.36,415.919 C106.118,415.29 106.938,412.422 107.182,409.547 C107.572,404.953 110.265,397.245 111.978,395.818 C112.308,395.543 113.671,393.743 115.006,391.818 C116.341,389.893 118.345,387.527 119.458,386.561 C131.641,375.988 156.085,369.072 171.484,371.843 C175.333,372.536 180.057,373.196 181.982,373.311 C186.019,373.552 189.052,374.664 190.482,376.427 C192.076,378.393 203.606,382.816 207.202,382.84 C210.722,382.864 222.412,388.054 221.346,389.12 C220.993,389.473 221.78,390.177 223.093,390.685 C227.241,392.288 236.356,402.014 236.768,405.277 C236.973,406.904 238.343,409.306 239.811,410.614 C247.399,417.372 247.982,418.093 247.982,420.724 C247.982,422.23 248.718,425.621 249.617,428.26 C250.817,431.783 251.104,435.022 250.694,440.439 C250.242,446.415 250.407,447.818 251.559,447.818 C252.342,447.818 252.982,448.268 252.982,448.818 C252.982,449.368 251.857,449.818 250.482,449.818 C247.707,449.818 246.972,452.493 249.482,453.456 C251.161,454.1 251.56,457.818 249.951,457.818 C249.383,457.818 248.66,457.143 248.344,456.318 C248.027,455.493 247.116,454.818 246.318,454.818 C245.084,454.818 245.1,455.148 246.425,457.04 C247.281,458.263 247.982,460.008 247.982,460.918 C247.982,463.012 250.571,465.292 251.409,463.935 C251.742,463.397 251.557,462.673 250.998,462.328 C249.752,461.557 249.656,459.818 250.86,459.818 C252.873,459.818 255.736,471.43 255.861,480.102 C255.93,484.933 256.388,490.671 256.878,492.852 C257.611,496.111 257.501,496.818 256.264,496.818 C255.087,496.818 254.902,497.577 255.413,500.303 C256.111,504.02 254.453,511.896 252.749,512.957 C252.185,513.308 251.767,515.783 251.819,518.457 C251.887,521.888 251.635,522.877 250.964,521.818 C250.118,520.484 250.009,520.484 249.984,521.818 C249.968,522.643 249.664,524.406 249.308,525.736 C248.779,527.711 248.965,528.038 250.321,527.518 C252.604,526.642 252.461,528.983 249.986,533.044 C248.888,534.844 247.988,537.068 247.986,537.985 C247.98,540.63 244.088,549.001 243.137,548.414 C242.664,548.121 241.423,548.528 240.379,549.318 C237.782,551.284 236.982,551.166 236.982,548.818 C236.982,547.718 237.432,546.818 237.982,546.818 C238.532,546.818 238.982,546.24 238.982,545.534 C238.982,544.763 237.769,544.263 235.95,544.284 C233.727,544.309 232.591,544.985 231.695,546.818 C231.023,548.193 229.059,549.993 227.331,550.818 L224.188,552.318 L224.71,559.818 C225.282,568.031 227.32,572.59 231.395,574.771 C232.759,575.501 234.116,576.725 234.41,577.49 C234.845,578.623 233.972,578.748 229.713,578.161 C226.836,577.765 223.807,577.49 222.982,577.55 C222.157,577.61 219.103,577.738 216.195,577.835 C211.278,577.998 210.954,578.161 211.568,580.164 C211.93,581.349 212.686,582.891 213.247,583.592 C214.913,585.673 213.348,586.104 210.618,584.315 C209.222,583.4 207.235,582.92 206.202,583.248 C204.593,583.759 204.388,583.413 204.767,580.831 C205.239,577.613 206.674,576.852 207.62,579.318 C208.48,581.558 209.671,581.127 209.487,578.641 C209.352,576.803 207.335,575.167 204.859,574.888 C204.517,574.849 204.02,577.072 203.755,579.828 C203.277,584.803 200.594,589.314 198.78,588.193 C197.464,587.38 198.537,580.626 200.183,579.365 C201.774,578.146 201.124,572.696 199.317,572.095 C198.041,571.671 196.799,574.716 196.434,579.159 C196.305,580.721 195.726,582.474 195.145,583.054 C194.565,583.635 194.332,585.32 194.628,586.8 C194.974,588.527 194.595,590.062 193.571,591.086 C192.111,592.546 192.136,592.732 193.871,593.283 C194.913,593.613 196.04,594.657 196.375,595.601 C196.709,596.545 197.246,597.88 197.566,598.568 C197.965,599.423 197.176,599.818 195.065,599.818 C193.37,599.818 191.982,600.268 191.982,600.818 C191.982,601.368 192.432,601.818 192.982,601.818 C193.532,601.818 193.982,603.618 193.982,605.818 C193.982,608.018 193.518,609.818 192.951,609.818 C191.591,609.818 191.135,608.295 190.778,602.563 C190.615,599.948 190.047,597.698 189.515,597.563 C188.533,597.314 188.582,604.954 189.596,610.068 C189.921,611.706 189.705,612.818 189.061,612.818 C188.468,612.818 187.982,611.934 187.982,610.854 z M163.665,601.63 C163.346,600.833 163.109,601.069 163.061,602.234 C163.018,603.289 163.254,603.879 163.586,603.547 C163.918,603.215 163.954,602.352 163.665,601.63 z M166.982,598.425 C166.982,598.209 166.284,597.764 165.43,597.436 C164.54,597.095 164.139,597.262 164.489,597.829 C165.076,598.779 166.982,599.235 166.982,598.425 z M187.849,575.238 C186.285,574.394 185.356,574.315 185.11,575.005 C184.604,576.425 186.963,577.762 188.759,577.073 C189.865,576.649 189.646,576.206 187.849,575.238 z M193.032,573.818 C194.306,572.968 194.545,569.547 193.359,569.131 C192.17,568.713 190.965,571.975 191.075,575.318 C191.122,576.763 191.298,576.901 191.711,575.818 C192.025,574.993 192.619,574.093 193.032,573.818 z M189.982,570.727 C189.982,569.639 190.919,568.407 192.07,567.981 C193.947,567.286 193.998,567.076 192.57,565.891 C191.697,565.166 190.982,563.728 190.982,562.695 C190.982,561.637 190.28,560.818 189.374,560.818 C188.157,560.818 187.918,561.427 188.393,563.318 C188.813,564.994 188.602,565.828 187.751,565.85 C186.974,565.869 187.183,566.413 188.292,567.254 C189.436,568.121 189.712,568.867 189.042,569.281 C188.459,569.641 187.982,570.836 187.982,571.936 C187.982,573.036 188.432,573.658 188.982,573.318 C189.532,572.978 189.982,571.812 189.982,570.727 z M197.899,564.901 C199.835,562.964 199.662,561.818 197.432,561.818 C196.763,561.818 196,562.943 195.737,564.318 C195.163,567.322 195.411,567.389 197.899,564.901 z M225.982,546.818 C227.195,546.034 227.051,545.845 225.232,545.833 C223.995,545.825 222.982,546.268 222.982,546.818 C222.982,548.071 224.043,548.071 225.982,546.818 z M232.982,541.891 C232.982,541.134 227.565,537.818 226.328,537.818 C226.138,537.818 225.982,538.455 225.982,539.234 C225.982,540.014 227.22,541.103 228.732,541.655 C232.329,542.969 232.982,543.005 232.982,541.891 z M102.982,536.818 C102.982,536.268 102.784,535.818 102.541,535.818 C102.298,535.818 101.822,536.268 101.482,536.818 C101.142,537.368 101.341,537.818 101.923,537.818 C102.505,537.818 102.982,537.368 102.982,536.818 z M161.732,533.064 C163.52,532.924 164.982,533.262 164.982,533.814 C164.982,535.565 168.6,534.897 170.503,532.794 C171.752,531.414 172.66,531.096 173.358,531.794 C174.924,533.359 175.994,533.013 175.287,531.17 C174.771,529.825 175.151,529.617 177.354,530.038 C179.317,530.413 180.325,530.045 181.053,528.686 C181.602,527.658 182.712,526.818 183.517,526.818 C185.104,526.818 185.543,522.25 184.165,520.079 C183.176,518.522 174.715,516.671 165.085,515.906 C159.656,515.474 157.404,514.865 156.62,513.616 C156.033,512.68 155.777,511.689 156.051,511.415 C156.326,511.141 160.205,510.707 164.672,510.452 C169.14,510.197 173.624,509.552 174.638,509.019 C178.217,507.138 185.163,506.495 186.09,507.959 C186.724,508.959 186.955,508.74 186.967,507.127 C186.984,504.669 185.456,503.241 184.487,504.809 C183.789,505.94 181.052,505.61 176.506,503.849 C172.684,502.368 157.523,502.824 154.257,504.519 C150.947,506.236 147.982,506.169 147.982,504.377 C147.982,503.584 148.392,502.682 148.893,502.372 C149.395,502.063 149.678,500.653 149.523,499.24 C149.312,497.314 149.835,496.444 151.611,495.769 C152.915,495.273 153.982,494.406 153.982,493.842 C153.982,493.279 154.545,492.93 155.232,493.068 C155.928,493.207 156.619,492.132 156.791,490.641 C157.185,487.232 159.689,484.89 160.547,487.127 C161.654,490.011 156.934,496.818 153.827,496.818 C152.513,496.818 151.982,497.556 151.982,499.386 L151.982,501.954 L155.204,499.66 C157.694,497.887 160.25,497.247 166.454,496.842 C170.869,496.553 173.748,496.015 172.851,495.645 C171.051,494.902 170.345,486.818 172.08,486.818 C172.689,486.818 172.667,486.098 172.021,484.89 C171.453,483.83 171.241,482.307 171.548,481.506 C172.004,480.319 171.262,480.145 167.545,480.564 C164.557,480.9 162.982,480.694 162.982,479.967 C162.982,479.226 161.485,479.061 158.482,479.473 C154.131,480.069 153.982,480.002 153.982,477.454 C153.982,474.996 154.287,474.818 158.482,474.818 C160.957,474.818 162.982,475.24 162.982,475.756 C162.982,477.267 167.292,476.508 169.126,474.674 C170.469,473.331 171.581,473.164 174.618,473.848 C176.712,474.321 178.648,474.486 178.919,474.215 C179.957,473.176 177.169,470.304 174.848,470.022 C172.808,469.774 172.219,468.883 171.199,464.493 C169.556,457.429 169.649,455.883 172.005,451.006 C173.913,447.057 173.933,446.673 172.366,444.28 C170.797,441.886 170.81,441.657 172.592,440.227 C176.407,437.167 181.176,435.782 190.066,435.151 C196.279,434.71 199.328,434.079 199.68,433.162 C200.354,431.406 203.982,431.416 203.982,433.173 C203.982,433.918 206.007,435.808 208.482,437.372 C210.957,438.937 212.982,440.577 212.982,441.017 C212.982,441.457 213.432,441.818 213.982,441.818 C215.666,441.818 214.981,431.566 213.081,428.318 C209.176,421.645 198.979,416.523 183.952,413.688 C170.552,411.16 149.982,410.011 149.982,411.791 C149.982,412.421 149.519,412.65 148.954,412.3 C147.611,411.47 135.466,414.53 130.982,416.829 C126.734,419.006 123.995,421.429 121.706,425.033 C119.314,428.799 119.519,430.547 122.081,428.229 C124.172,426.336 124.177,426.339 123.681,429.324 C123.406,430.97 122.722,433.493 122.159,434.929 C120.559,439.018 118.717,464.556 119.464,472.318 C120.288,480.888 122.504,490.74 123.927,492.163 C124.507,492.743 124.982,494.028 124.982,495.018 C124.982,496.008 125.36,496.818 125.821,496.818 C127.326,496.818 129.173,502.026 128.063,503.137 C127.376,503.824 126.83,503.586 126.376,502.401 C125.318,499.644 124.376,502.265 124.806,506.772 C125.195,510.851 126.982,512.531 126.982,508.818 C126.982,507.718 127.432,506.818 127.982,506.818 C128.898,506.818 129.088,507.395 129.382,511.068 C129.437,511.755 130.497,513.353 131.738,514.619 C133.361,516.275 133.822,517.608 133.38,519.369 C132.605,522.457 133.654,526.818 135.172,526.818 C137.096,526.818 139.882,523.722 139.308,522.224 C138.425,519.924 140.807,520.628 142.161,523.068 C142.849,524.305 143.427,525.612 143.447,525.971 C143.529,527.482 149.12,531.702 150.393,531.213 C151.156,530.921 152.077,531.162 152.44,531.75 C152.803,532.337 153.973,532.818 155.041,532.818 C156.109,532.818 156.989,533.38 156.997,534.068 C157.007,534.842 157.292,534.937 157.747,534.318 C158.151,533.768 159.945,533.204 161.732,533.064 z M139.649,512.151 C138.303,510.805 139.038,504.629 141.002,500.778 C142.536,497.772 143.62,496.818 145.502,496.818 C148.526,496.818 148.824,499.297 145.982,500.818 C144.562,501.578 143.982,502.912 143.982,505.419 C143.982,510.66 141.701,514.204 139.649,512.151 z M153,480.852 C152.371,479.676 152.048,477.725 152.283,476.516 C152.664,474.551 152.724,474.588 152.846,476.868 C152.921,478.27 153.515,479.95 154.165,480.601 C154.816,481.252 155.078,482.055 154.746,482.387 C154.415,482.718 153.629,482.027 153,480.852 z M135.811,457.504 C134.946,456.639 133.181,456.282 131.207,456.571 C124.717,457.524 126.793,451.591 134.47,447.246 C135.511,446.657 136.514,445.721 136.699,445.166 C137.182,443.718 130.843,444.814 129.194,446.463 C127.137,448.52 126.206,448.112 125.487,444.842 C124.749,441.478 125.427,439.818 127.541,439.818 C128.334,439.818 128.982,439.404 128.982,438.899 C128.982,438.377 134.666,438.07 142.152,438.187 C154.897,438.387 155.379,438.473 157.07,440.856 C161.835,447.571 160.327,450.24 151.899,450.008 C146.683,449.864 145.428,450.163 144.263,451.827 C142.564,454.253 141.211,454.335 138.805,452.157 C136.746,450.294 136.515,450.394 135.539,453.568 C134.942,455.509 135.211,455.818 137.498,455.818 C139.1,455.818 139.992,456.288 139.753,457.005 C139.144,458.832 137.364,459.057 135.811,457.504 z M141.982,448.818 C141.982,448.268 141.784,447.818 141.541,447.818 C141.298,447.818 140.822,448.268 140.482,448.818 C140.142,449.368 140.341,449.818 140.923,449.818 C141.505,449.818 141.982,449.368 141.982,448.818 z M145.008,456.068 C145.033,455.347 151.927,451.818 153.31,451.818 C155.268,451.818 153.489,453.559 149.975,455.082 C145.473,457.032 144.971,457.132 145.008,456.068 z M247.982,523.207 L247.982,518.596 L246.031,520.957 C244.354,522.987 244.284,523.473 245.531,524.428 C246.329,525.039 246.982,526.051 246.982,526.678 C246.982,527.305 247.207,527.818 247.482,527.818 C247.757,527.818 247.982,525.743 247.982,523.207 z M199.947,494.883 C201.48,492.02 201.237,491.537 198.597,492.2 C196.59,492.703 196.127,492.363 195.68,490.058 C194.933,486.211 195.961,481.871 198.202,479.411 C204.725,472.251 208.762,468.488 210.732,467.731 C214.194,466.402 213.87,461.139 210.232,459.621 C204.488,457.225 199.054,456.101 198.674,457.23 C198.414,458.002 197.898,457.989 196.895,457.183 C196.118,456.559 194.016,455.735 192.223,455.352 C188.618,454.581 188.765,452.818 192.434,452.818 C193.718,452.818 195.027,452.143 195.344,451.318 C196.035,449.516 195.803,449.487 192.559,450.965 C190.875,451.732 189.617,451.783 188.762,451.12 C186.326,449.232 183.982,448.821 183.982,450.282 C183.982,451.052 184.882,451.969 185.982,452.318 C187.082,452.667 187.982,453.372 187.982,453.885 C187.982,455.373 186.469,454.974 184.006,452.839 C182.751,451.75 181.332,451.101 180.853,451.398 C180.374,451.694 179.982,451.459 179.982,450.877 C179.982,450.294 179.307,449.818 178.482,449.818 C176.326,449.818 176.626,451.142 179.482,454.223 C181.995,456.935 182.904,459.506 180.915,458.276 C180.327,457.913 179.601,458.56 179.298,459.717 C178.922,461.156 177.919,461.838 176.115,461.881 C173.492,461.944 173.491,461.948 175.796,462.873 C177.069,463.383 177.848,464.226 177.527,464.745 C177.206,465.264 177.976,466.73 179.237,468.003 C180.499,469.276 181.37,471.127 181.174,472.117 C180.977,473.106 181.556,475.045 182.46,476.425 C183.364,477.804 183.964,480.145 183.793,481.625 C183.522,483.969 183.061,484.299 180.232,484.17 C176.701,484.01 176.134,484.869 178.482,486.818 C179.307,487.502 179.982,488.652 179.982,489.373 C179.982,490.85 183.582,492.332 186.232,491.947 C187.195,491.807 187.982,492.302 187.982,493.048 C187.982,494.44 192.754,496.427 196.697,496.677 C197.969,496.758 199.352,495.994 199.947,494.883 z M201.482,442.818 C201.822,442.268 201.2,441.818 200.1,441.818 C199,441.818 197.822,442.268 197.482,442.818 C197.142,443.368 197.764,443.818 198.864,443.818 C199.964,443.818 201.142,443.368 201.482,442.818 z M160.982,394.51 C160.982,394.001 162.107,393.8 163.482,394.062 C166.301,394.601 166.715,393.671 164.482,391.818 C162.565,390.226 162.573,388.402 164.506,386.798 C166.711,384.967 165.676,384.544 162.515,385.985 C160.173,387.052 159.656,386.987 158.836,385.522 C157.381,382.921 155.86,383.485 156.581,386.358 C157.015,388.087 156.652,389.525 155.446,390.858 C153.736,392.747 153.75,392.818 155.827,392.818 C157.585,392.818 157.988,393.416 158.014,396.068 C158.044,399.142 158.125,399.213 159.514,397.377 C160.321,396.309 160.982,395.019 160.982,394.51 z M191.982,611.818 C191.982,611.268 192.432,610.818 192.982,610.818 C193.532,610.818 193.982,611.268 193.982,611.818 C193.982,612.368 193.532,612.818 192.982,612.818 C192.432,612.818 191.982,612.368 191.982,611.818 z M119.982,606.562 C119.982,605.871 118.632,604.708 116.982,603.978 C113.525,602.448 112.798,599.695 116.078,600.553 C118.388,601.157 122.982,605.356 122.982,606.863 C122.982,607.388 122.307,607.818 121.482,607.818 C120.657,607.818 119.982,607.253 119.982,606.562 z M168.274,606.367 C167.322,605.284 167.376,604.736 168.524,603.783 C169.629,602.866 169.982,602.859 169.982,603.754 C169.982,604.404 170.39,604.684 170.889,604.375 C171.387,604.067 171.56,604.716 171.272,605.816 C170.664,608.143 169.95,608.275 168.274,606.367 z M250.939,592.725 C249.541,592.21 247.603,590.446 246.633,588.803 C244.902,585.874 244.909,585.818 246.984,585.818 C248.148,585.818 248.839,586.241 248.519,586.758 C247.723,588.045 251.937,591.818 254.171,591.818 C255.167,591.818 255.982,592.268 255.982,592.818 C255.982,594.018 254.373,593.988 250.939,592.725 z M127.249,591.068 C126.545,589.239 127.708,586.818 129.29,586.818 C130.379,586.818 132.982,590.654 132.982,592.259 C132.982,593.242 127.66,592.136 127.249,591.068 z M206.797,591.79 C206.624,591.287 205.481,590.724 204.258,590.539 C200.447,589.963 200.746,589.111 204.996,588.432 C207.276,588.067 208.809,587.347 208.47,586.798 C208.137,586.259 208.314,585.818 208.864,585.818 C210.925,585.818 211.101,587.974 209.083,588.502 C207.927,588.804 206.982,589.434 206.982,589.903 C206.982,590.372 207.657,590.496 208.482,590.179 C209.307,589.863 209.982,590.054 209.982,590.604 C209.982,591.928 207.2,592.964 206.797,591.79 z M180.649,590.151 C180.282,589.784 179.982,588.573 179.982,587.46 C179.982,585.465 180.004,585.464 181.45,587.377 C182.258,588.444 182.933,589.655 182.95,590.068 C182.99,590.997 181.547,591.05 180.649,590.151 z M99.8117,587.068 C100.307,586.105 100.482,584.643 100.201,583.818 C99.8398,582.758 100.342,582.897 101.913,584.292 C103.135,585.378 103.648,586.429 103.053,586.628 C102.457,586.826 102.224,587.4 102.535,587.903 C102.846,588.406 102.158,588.818 101.006,588.818 C99.3352,588.818 99.0937,588.464 99.8117,587.068 z M96.982,585.293 C96.982,583.928 91.8238,582.017 89.732,582.607 C89.3195,582.723 88.982,582.191 88.982,581.425 C88.982,580.659 88.307,579.773 87.482,579.456 C86.657,579.14 85.982,578.253 85.982,577.485 C85.982,576.717 83.9617,575.318 81.4923,574.375 C75.0983,571.933 74.6845,570.503 80.6252,571.379 C83.2965,571.773 85.707,572.409 85.982,572.793 C86.257,573.177 88.732,574.787 91.482,576.371 C94.232,577.954 97.0445,579.796 97.732,580.463 C99.2195,581.905 99.4127,586.818 97.982,586.818 C97.432,586.818 96.982,586.131 96.982,585.293 z M214.982,586.058 C214.982,584.965 219.067,582.569 219.756,583.259 C220.075,583.578 219.469,584.494 218.409,585.296 C216.263,586.92 214.982,587.205 214.982,586.058 z M174.921,576.536 C174.063,575.316 172.771,572.855 172.05,571.068 C171.329,569.28 170.344,567.818 169.861,567.818 C169.377,567.818 168.982,567.095 168.982,566.211 C168.982,565.156 169.526,564.812 170.564,565.211 C171.434,565.545 172.522,565.818 172.981,565.818 C173.441,565.818 174.605,567.955 175.569,570.568 C176.532,573.18 177.989,576.105 178.806,577.068 C180.143,578.642 180.101,578.815 178.387,578.786 C177.339,578.769 175.78,577.757 174.921,576.536 z M140.982,572.818 C140.982,572.268 141.432,571.818 141.982,571.818 C142.532,571.818 142.982,572.268 142.982,572.818 C142.982,573.368 142.532,573.818 141.982,573.818 C141.432,573.818 140.982,573.368 140.982,572.818 z M76.061,563.234 C76.1089,562.069 76.3459,561.833 76.6651,562.63 C76.954,563.352 76.9185,564.215 76.5862,564.547 C76.2539,564.879 76.0175,564.289 76.061,563.234 z M78.982,562.818 C78.982,562.268 80.177,561.818 81.6376,561.818 C83.0982,561.818 85.6857,560.762 87.3876,559.472 C90.6067,557.032 95.982,555.459 95.982,556.956 C95.982,557.43 95.3621,557.818 94.6045,557.818 C93.8468,557.818 92.6907,558.464 92.0354,559.253 C91.38,560.043 89.521,560.98 87.9042,561.335 C86.2874,561.69 85.22,562.394 85.5323,562.899 C85.8446,563.404 84.4985,563.818 82.541,563.818 C80.5836,563.818 78.982,563.368 78.982,562.818 z M98.982,555.383 C98.982,554.778 105.181,551.818 106.45,551.818 C106.743,551.818 106.982,552.493 106.982,553.318 C106.982,554.143 106.195,554.824 105.232,554.831 C104.27,554.839 102.47,555.116 101.232,555.448 C99.9945,555.78 98.982,555.751 98.982,555.383 z" id="path2316" transform="matrix(1.42503, 0, 0, 1.42503, -107.564, -528.661)" display="inline" class="" fill="rgb(0,0,0)"/>
</svg>